HIERARCHY
ROOT Hips
{
  OFFSET 0 0 0
  CHANNELS 6 Xposition Yposition Zposition Zrotation Xrotation Yrotation
  JOINT Spine
  {
    OFFSET 0 10 0
    CHANNELS 3 Zrotation Xrotation Yrotation
    JOINT Neck
    {
      OFFSET 0 30 0
      CHANNELS 3 Zrotation Xrotation Yrotation
      JOINT Head
      {
        OFFSET 0 8 0
        CHANNELS 3 Zrotation Xrotation Yrotation
        End Site
        {
          OFFSET 0 10 0
        }
      }
    }
    JOINT LeftArm
    {
      OFFSET 15 30 0
      CHANNELS 3 Zrotation Xrotation Yrotation
      JOINT LeftForeArm
      {
        OFFSET 25 0 0
        CHANNELS 3 Zrotation Xrotation Yrotation
        JOINT LeftHand
        {
          OFFSET 25 0 0
          CHANNELS 3 Zrotation Xrotation Yrotation
          End Site
          {
            OFFSET 10 0 0
          }
        }
      }
    }
    JOINT RightArm
    {
      OFFSET -15 30 0
      CHANNELS 3 Zrotation Xrotation Yrotation
      JOINT RightForeArm
      {
        OFFSET -25 0 0
        CHANNELS 3 Zrotation Xrotation Yrotation
        JOINT RightHand
        {
          OFFSET -25 0 0
          CHANNELS 3 Zrotation Xrotation Yrotation
          End Site
          {
            OFFSET -10 0 0
          }
        }
      }
    }
  }
  JOINT LeftUpLeg
  {
    OFFSET 10 -10 0
    CHANNELS 3 Zrotation Xrotation Yrotation
    JOINT LeftLeg
    {
      OFFSET 0 -35 0
      CHANNELS 3 Zrotation Xrotation Yrotation
      JOINT LeftToe
      {
        OFFSET 0 -40 0
        CHANNELS 3 Zrotation Xrotation Yrotation
        JOINT LeftToeEnd
        {
          OFFSET 0 0 0
          CHANNELS 3 Zrotation Xrotation Yrotation
          End Site
          {
            OFFSET 0 0 15
          }
        }
      }
    }
  }
  JOINT RightUpLeg
  {
    OFFSET -10 -10 0
    CHANNELS 3 Zrotation Xrotation Yrotation
    JOINT RightLeg
    {
      OFFSET 0 -35 0
      CHANNELS 3 Zrotation Xrotation Yrotation
      JOINT RightToe
      {
        OFFSET 0 -40 0
        CHANNELS 3 Zrotation Xrotation Yrotation
        JOINT RightToeEnd
        {
          OFFSET 0 0 0
          CHANNELS 3 Zrotation Xrotation Yrotation
          End Site
          {
            OFFSET 0 0 15
          }
        }
      }
    }
  }
}
MOTION
Frames:	17
Frame Time:	0.0333333
248.405 83.3617 -24.7487 -2.10631 -9.59113 152.107 -0.000104029 -6.74068e-006 -4.02359e-007 6.33007 1.81626 2.74248 -19.9339 0.550191 43.1242 -57.8863 -11.4993 -12.7425 0.164008 0.453675 -36.6792 6.84408 -11.0546 -8.7487 69.524 20.0322 18.3647 1.57244 2.82534 38.7096 -11.3398 -5.09591 3.10439 20.6252 -46.8156 24.2822 -13.1234 57.6852 6.54079 8.63288 -8.29414 -12.8834 7.95139e-016 0 -9.54166e-015 -5.83459 -34.6409 14.2735 -5.68701 37.4135 1.78174 20.3584 -13.8508 16.3674 -1.10652e-016 -1.2424e-017 -3.97569e-016 
248.386 81.1708 -22.6987 -2.42409 -11.3337 151.861 -0.000104029 -6.74068e-006 -4.02359e-007 5.99197 4.45288 2.15854 -19.4538 -2.90671 44.2366 -51.3753 -15.208 -13.0047 0.199201 0.494672 -40.6813 7.85381 -19.0072 -11.3364 71.9952 19.6589 18.902 1.44175 2.26585 31.9616 -9.42189 -8.4575 3.39641 31.4448 -51.8344 37.9946 -17.0363 64.0693 9.8796 5.5166 -9.56143 -10.8042 3.97569e-016 -3.18055e-015 -0 -3.69429 -43.2493 12.2566 -7.96764 46.5575 3.19061 18.8461 -15.0075 19.2155 -1.80149e-016 9.93923e-017 -1.19271e-015 
248.44 79.3359 -21.1646 -2.27499 -12.4332 154.106 -0.000104029 -6.74068e-006 -4.02359e-007 5.18167 7.65748 -0.316646 -18.699 -6.54281 44.2587 -46.8185 -18.5557 -14.6116 0.209932 0.505743 -41.79 8.41391 -26.3078 -13.6213 75.0263 16.2152 16.6868 1.25249 1.7397 25.3945 -7.56773 -12.6364 3.33135 40.6501 -54.6131 50.9237 -19.3734 66.8077 11.9848 6.53583 -11.1461 -4.65671 -1.98785e-016 0 -0 -4.868 -48.8787 7.48283 -10.0049 52.9471 4.67143 18.7156 -16.0089 21.5989 1.55301e-016 1.98785e-016 -3.97569e-016 
248.49 77.847 -20.0538 -1.17516 -13.7227 157.269 -0.000104029 -6.74068e-006 -4.02359e-007 5.08269 9.83364 -1.70508 -18.4117 -7.72765 43.115 -43.9037 -22.3866 -18.3478 0.192719 0.48727 -39.972 9.03427 -32.4865 -15.5027 76.5306 12.8816 13.8775 1.02647 1.2779 19.3565 -6.13609 -15.6481 2.89429 50.0693 -55.927 63.1236 -19.4815 66.9534 12.2071 9.59797 -12.0517 3.04031 3.60297e-016 -9.93923e-017 -7.95139e-016 -5.82801 -52.4783 3.0887 -11.8109 57.4314 6.09158 18.7509 -17.1977 22.2687 6.21202e-017 -9.93923e-017 1.59028e-015 
248.502 76.5274 -19.356 0.783986 -14.9781 160.507 -0.000104029 -6.74068e-006 -4.02359e-007 4.79806 11.1336 -2.26561 -18.3812 -8.39091 41.9091 -42.7326 -25.7437 -22.0645 0.163499 0.452069 -36.4882 9.42594 -37.5011 -16.6843 76.443 10.6956 11.6812 0.81946 0.939412 14.6983 -5.51446 -17.8915 2.32757 59.0496 -56.0694 73.5957 -18.2736 65.609 11.2431 12.533 -11.8109 9.13477 -0 -7.95139e-016 -0 -6.29976 -54.8139 -0.420501 -13.4869 60.8372 7.48398 19.0276 -18.3425 22.394 1.61513e-016 -1.98785e-016 3.97569e-016 
248.29 75.3002 -19.0212 3.07038 -15.6253 163.566 -0.000104029 -6.74068e-006 -4.02359e-007 3.74665 12.0912 -2.58338 -18.5085 -9.40218 41.5285 -42.3676 -27.5259 -23.1439 0.141198 0.417991 -33.3567 9.38885 -39.6178 -16.9763 73.6163 8.89008 9.87537 0.655311 0.708707 11.3735 -5.43643 -18.839 1.75626 66.7455 -55.3047 81.402 -16.4051 63.2067 9.68124 14.1905 -11.4423 11.1508 1.59028e-015 1.59028e-015 -0 -6.52493 -56.1752 -3.27402 -15.2025 63.6912 8.95606 19.2305 -19.6598 21.9613 -2.73329e-016 0 -1.59028e-015 
247.872 74.1405 -18.9886 5.77818 -15.6922 166.439 -0.000104029 -6.74068e-006 -4.02359e-007 2.0503 12.6086 -2.94173 -18.4657 -10.6638 42.0621 -41.9576 -27.5295 -22.5477 0.108792 0.387189 -30.638 9.26934 -39.0762 -16.7262 68.7859 6.8988 9.62554 0.508632 0.524163 8.60536 -6.4199 -18.5194 1.35128 72.4556 -53.7536 86.304 -14.6135 60.4315 8.1991 15.3781 -11.5158 10.9747 -1.59028e-015 0 -0 -6.53428 -56.1902 -5.86525 -16.8617 65.9507 10.3939 19.8178 -21.0364 21.8642 -5.51738e-033 1.98785e-016 1.59028e-015 
247.196 72.9794 -19.32 8.90389 -15.1293 169.382 -0.000104029 -6.74068e-006 -4.02359e-007 -0.0461106 12.4511 -3.20942 -17.561 -11.9794 42.5216 -41.8681 -27.1955 -20.6364 0.0831663 0.355831 -27.8327 9.7778 -37.3741 -15.9207 61.9677 3.62121 10.9077 0.42946 0.431736 7.17639 -7.33643 -17.8972 0.375893 77.0875 -52.0257 89.6205 -13.3382 58.0933 7.20136 16.9727 -11.9182 11.3655 -1.59028e-015 0 -1.27222e-014 -6.3744 -55.1604 -8.29076 -18.4419 67.8799 11.863 20.5767 -22.4795 21.6805 -8.69683e-017 -1.98785e-016 -7.95139e-016 
246.34 71.9001 -19.8299 12.1482 -14.2378 172.115 -0.000104029 -6.74068e-006 -4.02359e-007 -2.79783 11.8651 -3.00402 -15.8241 -13.8265 43.0533 -42.149 -27.9236 -17.6886 0.0727491 0.323216 -25.1984 10.678 -36.9227 -15.0847 52.9734 0.362079 13.9328 0.413656 0.413601 6.88857 -7.49993 -17.1001 0.199553 81.2718 -50.3018 92.6007 -12.6595 56.6992 6.71499 17.8141 -12.1186 13.3432 -3.18055e-015 -4.77083e-015 -3.18055e-015 -5.7725 -53.4491 -10.0798 -19.7911 69.225 13.0667 21.8386 -23.7539 21.7301 4.96962e-017 3.97569e-016 -0 
245.128 70.8432 -20.5698 15.279 -13.1629 174.772 -0.000104029 -6.74068e-006 -4.02359e-007 -5.89211 10.6452 -2.67352 -13.9422 -15.7542 43.6524 -42.724 -29.8576 -14.631 0.0335851 0.288572 -22.3628 11.8295 -35.8485 -14.0545 42.9252 -4.86918 18.2903 0.442735 0.446349 7.40422 -6.16436 -15.1835 -1.33335 85.1712 -48.6759 95.6305 -12.701 56.7681 6.82065 19.311 -12.6104 16.0088 8.82781e-032 -1.59028e-015 3.18055e-015 -5.31746 -51.092 -11.685 -20.6525 70.0018 13.8348 23.3954 -25.2169 21.9542 5.2181e-016 -3.97569e-016 -7.95139e-016 
243.638 69.8243 -21.6272 18.3189 -11.9281 177.616 -0.000104029 -6.74068e-006 -4.02359e-007 -9.15713 8.87897 -1.98146 -12.1556 -17.5318 43.9388 -43.3135 -32.5464 -12.156 0.0484046 0.250036 -19.1761 12.9822 -34.1571 -12.9874 32.673 -11.6193 22.8145 0.49725 0.506488 8.34176 -4.39359 -12.6453 -3.97871 88.7825 -47.2727 98.8964 -13.4632 58.2786 7.55351 22.3917 -12.9083 20.0114 1.59028e-015 7.95139e-016 -3.18055e-015 -5.2009 -47.9544 -13.53 -20.7782 70.0958 13.9155 25.1915 -26.8947 22.3035 -1.73937e-016 0 -7.95139e-016 
241.866 68.9057 -23.0819 21.5543 -10.4306 -179.021 -0.000104029 -6.74068e-006 -4.02359e-007 -12.4417 6.85932 -0.636973 -10.5684 -19.1907 43.2728 -43.3628 -35.5564 -9.92016 0.0383306 0.217461 -16.6176 13.7651 -33.9412 -12.3752 22.0707 -17.5896 28.1433 0.477468 0.486151 8.01463 -4.9013 -11.4439 -3.68641 92.5364 -46.2125 102.205 -15.5975 61.9151 9.52848 27.0266 -11.4348 26.5942 1.59028e-015 -4.77083e-015 -0 -5.1761 -43.5984 -15.9716 -19.9497 69.3312 13.1196 27.5271 -28.3193 23.0291 7.20594e-016 -3.97569e-016 -2.38542e-015 
239.853 68.1918 -25.1699 25.5214 -7.99317 -174.772 -0.000104029 -6.74068e-006 -4.02359e-007 -15.1027 4.96455 0.517502 -9.21091 -19.9199 42.4805 -42.2895 -38.0045 -8.1484 0.0161334 0.192751 -14.7167 14.1206 -31.9351 -12.0579 12.3519 -23.4309 32.148 0.479201 0.487404 8.03842 -5.84184 -12.9125 -2.13903 95.9614 -45.212 104.621 -19.1723 66.5008 12.791 29.7488 -10.1361 31.4083 1.59028e-015 9.93923e-016 -1.59028e-015 -4.05975 -36.7914 -18.848 -17.6208 66.8703 10.9479 29.5514 -29.3384 23.5194 4.84538e-016 -7.95139e-016 1.59028e-015 
237.376 67.8618 -27.8957 29.8354 -5.35675 -168.615 -0.000104029 -6.74068e-006 -4.02359e-007 -17.4334 2.74136 0.390496 -8.5942 -19.9603 40.841 -41.6008 -38.9749 -9.27343 0.0256129 0.176421 -13.4234 14.9576 -29.3757 -11.685 4.76471 -30.5522 34.2628 0.532021 0.553785 9.05921 -7.30389 -12.3688 -0.489337 97.0155 -46.0372 105.3 -22.2014 69.3601 15.6388 30.5957 -7.45607 31.7109 7.95139e-016 -3.23025e-016 -3.97569e-016 -2.14618 -28.6329 -23.0483 -14.5536 62.6241 8.16192 30.9964 -29.3851 22.1277 4.96962e-016 -3.97569e-016 -7.95139e-016 
234.208 67.792 -31.0255 34.32 -2.55214 -160.676 -0.000104029 -6.74068e-006 -4.02359e-007 -20.0367 0.679672 -0.336407 -8.48679 -19.9873 37.496 -41.9148 -39.1353 -12.5525 0.019519 0.160321 -12.1583 15.5681 -26.7021 -11.3046 -2.67757 -37.1325 34.7812 0.629616 0.676951 10.9077 -9.11975 -11.5353 1.28296 98.642 -49.2176 106.838 -24.887 71.3481 18.224 34.1462 -6.62173 30.2586 -1.98785e-016 -6.21202e-018 -0 0.301572 -20.9522 -27.9993 -12.3121 58.5005 6.22577 30.7547 -25.1384 19.4128 0 0 -7.95139e-016 
230.4 68.0267 -34.1674 39.3692 0.538361 -151.855 -0.000104029 -6.74068e-006 -4.02359e-007 -22.9458 -0.631328 -1.39124 -8.59401 -20.3413 32.6525 -43.1402 -39.8183 -19.4139 0.0152442 0.139917 -10.5753 16.0067 -23.8221 -10.9021 -10.5083 -41.771 33.8719 0.75775 0.851298 13.4469 -11.3989 -11.5083 3.09433 101.268 -54.4233 108.324 -27.7991 73.1036 20.9463 37.6157 -8.99429 28.3892 -7.95139e-016 2.79541e-017 -0 2.98025 -16.4063 -32.0305 -11.2496 56.1345 4.7851 29.5975 -15.5174 17.2783 -1.59028e-015 3.18055e-015 -7.95139e-016 
226.115 68.6522 -36.8699 45.7633 3.99213 -143.656 -0.000104029 -6.74068e-006 -4.02359e-007 -25.731 -1.31533 -2.52825 -8.32522 -21.6817 26.97 -44.3173 -41.1114 -28.1242 0.00928662 0.116066 -8.80923 17.2924 -20.2832 -10.304 -15.9795 -45.4515 34.3283 0.969749 1.1628 17.785 -14.3496 -11.8404 4.61472 108.518 -60.0138 110.735 -30.6295 74.5233 23.5127 37.8264 -11.5721 26.4832 7.95139e-016 -8.94531e-016 3.97569e-016 6.53746 -15.2371 -32.7338 -10.3597 53.9156 3.75278 26.7676 3.46877 17.7463 1.2921e-015 -6.36111e-015 1.88845e-015 
